# xmcd CD database file
#
# Track frame offsets:
#	150
#	31319
#	58181
#	83996
#	115261
#	148025
#	171151
#	210205
#	227451
#
# Disc length: 3406 seconds
#
# Revision: 0
# Processed by: cddbd v1.5.2PL0 Copyright (c) Steve Scherf et al.
# Submitted via: CDex 1.70
#
DISCID=720d4c09
DTITLE=Rob Thorsen Trio/Quartet - Moon Ray
DYEAR=2005
DGENRE=Jazz
TTITLE0=Moon Ray
TTITLE1=Eiderdown
TTITLE2=Mud Puppies
TTITLE3=Chelsea Bridge
TTITLE4=Bye Ya
TTITLE5=Bohemia After Dark
TTITLE6=Stardust
TTITLE7=In Xiangjiang Time
TTITLE8=Baubles, Bangles, and Beads
EXTD=YEAR: 2005
EXTT0=
EXTT1=
EXTT2=
EXTT3=
EXTT4=
EXTT5=
EXTT6=
EXTT7=
EXTT8=
PLAYORDER=
